# xmcd CD database file
#
# Track frame offsets:
#	150
#	17344
#	32914
#	48627
#	62555
#	82594
#	95145
#	111242
#	127412
#	141417
#	159530
#	172022
#
# Disc length: 2382 seconds
#
# Revision: 0
# Processed by: cddbd v1.5.2PL0 Copyright (c) Steve Scherf et al.
# Submitted via: CDex 2.02
#
DISCID=a6094c0c
DTITLE=Tim Williams - Blue Highway
DYEAR=2013
DGENRE=Blues
TTITLE0=The Blue Highway
TTITLE1=Hey, Baby
TTITLE2=The Lei Vendor's Song
TTITLE3=Blues Like Showers of Rain
TTITLE4=Tequila, Be a Friend of Mine
TTITLE5=Set My Mind on You
TTITLE6=Hard Times
TTITLE7=Muy Sabroso Blues
TTITLE8=I'd Rather be the Devil
TTITLE9=One Wheel Turning
TTITLE10=Nobody's Fault but Mine
TTITLE11=Mamie's Rag
EXTD=YEAR: 2013
EXTT0=
EXTT1=
EXTT2=
EXTT3=
EXTT4=
EXTT5=
EXTT6=
EXTT7=
EXTT8=
EXTT9=
EXTT10=
EXTT11=
PLAYORDER=
